<?xml version="1.0" encoding="utf-8"?>
<!-- Generator: Adobe Illustrator 16.0.4, SVG Export Plug-In . SVG Version: 6.00 Build 0)  -->
<!DOCTYPE svg PUBLIC "-//W3C//DTD SVG 1.1//EN" "http://www.w3.org/Graphics/SVG/1.1/DTD/svg11.dtd">
<svg version="1.1" id="Ebene_1" xmlns="http://www.w3.org/2000/svg" xmlns:xlink="http://www.w3.org/1999/xlink" x="0px" y="0px"
	 width="155.705px" height="58.389px" viewBox="-108.141 292.968 155.705 58.389"
	 enable-background="new -108.141 292.968 155.705 58.389" xml:space="preserve">
<g>
	<path fill="#151214" d="M-62.561,321.561l1.397-1.397h-2.862v-3.397h-1.511v10.728c0,1.532,0.882,2.771,2.645,2.771h1.071v-1.301
		h-0.798c-0.966,0-1.407-0.567-1.407-1.512v-5.891H-62.561L-62.561,321.561z M15.696,327.024v-11.716h-2.685v11.881
		c0,1.528,0.93,3.077,3.139,3.077h1.528v-2.271h-1.032C15.964,327.995,15.696,327.665,15.696,327.024L15.696,327.024z
		 M40.036,319.508l-1.735,6.649l-2.21-6.649h-1.962l-2.189,6.649l-1.735-6.649h-2.85l3.304,10.759h2.21l2.251-6.753l2.251,6.753
		h2.21l3.284-10.759H40.036L40.036,319.508z M24.048,327.499c-0.31,0.311-0.723,0.476-1.26,0.476c-0.537,0-0.93-0.165-1.239-0.476
		c-0.558-0.557-0.62-1.507-0.62-2.622s0.062-2.045,0.62-2.603c0.31-0.31,0.702-0.475,1.239-0.475c0.537,0,0.95,0.165,1.26,0.475
		c0.558,0.558,0.62,1.487,0.62,2.603S24.605,326.942,24.048,327.499L24.048,327.499z M22.788,319.384
		c-1.59,0-2.664,0.619-3.325,1.321c-0.971,1.012-1.219,2.23-1.219,4.172c0,1.962,0.248,3.181,1.219,4.192
		c0.661,0.702,1.734,1.321,3.325,1.321s2.685-0.619,3.345-1.321c0.971-1.012,1.219-2.23,1.219-4.192c0-1.941-0.248-3.16-1.219-4.172
		C25.473,320.003,24.378,319.384,22.788,319.384L22.788,319.384z M7.067,318.385v11.87h2.685v-8.483h1.982v-2.044H9.752v-1.178
		c0-0.619,0.31-0.971,0.949-0.971h1.033v-2.271h-1.529C8.017,315.308,7.067,316.857,7.067,318.385L7.067,318.385z M0.989,320.54
		v-1.032h-2.623v10.759h2.685v-6.484c0-1.363,0.909-1.982,1.735-1.982c0.661,0,1.003,0.22,1.417,0.633l2.032-2.037
		c-0.744-0.744-1.487-1.012-2.541-1.012C2.538,319.384,1.505,319.92,0.989,320.54L0.989,320.54z M-9.704,323.885
		c0.021-0.476,0.083-0.765,0.248-1.157c0.29-0.64,0.888-1.114,1.797-1.114s1.508,0.475,1.796,1.114
		c0.166,0.393,0.228,0.682,0.249,1.157H-9.704L-9.704,323.885z M-7.659,319.384c-2.788,0-4.688,1.982-4.688,5.493
		c0,4.357,2.437,5.514,4.977,5.514c1.941,0,2.995-0.599,4.089-1.693l-1.632-1.59c-0.682,0.682-1.26,1.012-2.437,1.012
		c-1.507,0-2.354-1.012-2.354-2.396h6.732v-1.198C-2.971,321.572-4.665,319.384-7.659,319.384L-7.659,319.384z M-15.056,319.508
		l-2.168,6.649l-2.189-6.649h-2.83l3.965,10.759h2.106l3.944-10.759H-15.056L-15.056,319.508z M-25.509,327.499
		c-0.31,0.311-0.723,0.476-1.26,0.476c-0.537,0-0.929-0.165-1.239-0.476c-0.558-0.557-0.62-1.507-0.62-2.622s0.062-2.045,0.62-2.603
		c0.31-0.31,0.703-0.475,1.239-0.475c0.537,0,0.95,0.165,1.26,0.475c0.558,0.558,0.62,1.487,0.62,2.603
		S-24.952,326.942-25.509,327.499L-25.509,327.499z M-26.769,319.384c-1.59,0-2.664,0.619-3.325,1.321
		c-0.971,1.012-1.219,2.23-1.219,4.172c0,1.962,0.248,3.181,1.219,4.192c0.661,0.702,1.735,1.321,3.325,1.321
		c1.59,0,2.685-0.619,3.346-1.321c0.971-1.012,1.219-2.23,1.219-4.192c0-1.941-0.248-3.16-1.219-4.172
		C-24.084,320.003-25.179,319.384-26.769,319.384L-26.769,319.384z M-33.87,319.921h-1.884l-4.684,4.56l0.008-9.162h-1.512v14.946
		h1.512l-0.008-3.77l1.834-1.84l3.464,5.609h1.868l-4.285-6.656L-33.87,319.921L-33.87,319.921z M-46.815,321.154
		c0.986,0,1.596,0.294,2.372,1.154c0,0,1.012-0.983,1.003-0.992c-1.06-1.134-1.959-1.506-3.375-1.506
		c-2.603,0-4.577,1.764-4.577,5.29s1.974,5.29,4.577,5.29c1.427,0,2.33-0.378,3.401-1.532l-1.029-0.986
		c-0.776,0.86-1.386,1.175-2.372,1.175c-1.008,0-1.847-0.398-2.393-1.175c-0.483-0.672-0.672-1.47-0.672-2.771
		s0.189-2.099,0.672-2.771C-48.663,321.552-47.823,321.154-46.815,321.154L-46.815,321.154z M-54.247,326.612
		c0,0.86-0.168,1.448-0.525,1.784c-0.651,0.63-1.428,0.693-2.31,0.693c-1.637,0-2.372-0.567-2.372-1.764s0.756-1.826,2.309-1.826
		h2.897V326.612L-54.247,326.612z M-56.871,319.81c-1.657,0-2.701,0.327-3.616,1.485c-0.013,0.016,0.991,0.992,0.991,0.992
		c0.609-0.861,1.281-1.176,2.603-1.176c1.89,0,2.646,0.756,2.646,2.267v0.987h-3.107c-2.31,0-3.569,1.176-3.569,2.98
		c0,0.819,0.273,1.596,0.776,2.1c0.651,0.672,1.491,0.944,2.918,0.944c1.385,0,2.141-0.272,2.981-1.112v0.986h1.511v-7.012
		C-52.735,321.007-54.1,319.81-56.871,319.81L-56.871,319.81z M-69.796,324.45l-1.658-0.147c-1.301-0.104-1.805-0.63-1.805-1.511
		c0-1.05,0.797-1.701,2.309-1.701c1.07,0,2.015,0.252,2.75,0.819l0.987-0.987c-0.924-0.755-2.247-1.112-3.716-1.112
		c-2.205,0-3.8,1.134-3.8,3.023c0,1.7,1.071,2.603,3.086,2.771l1.701,0.146c1.196,0.105,1.721,0.609,1.721,1.512
		c0,1.218-1.049,1.827-2.75,1.827c-1.281,0-2.393-0.336-3.212-1.197l-1.007,1.008c1.134,1.092,2.498,1.49,4.241,1.49
		c2.498,0,4.198-1.154,4.198-3.148C-66.752,325.31-67.991,324.618-69.796,324.45L-69.796,324.45z"/>
	<polygon fill="#BAB4AB" points="-82.368,332.808 -82.368,325.151 -79.816,325.151 -79.816,335.361 -102.772,335.361 
		-102.772,325.151 -100.22,325.151 -100.22,332.808 -82.368,332.808 	"/>
	<path fill="#FE6305" d="M-97.665,330.256h12.761v-2.552h-12.761V330.256L-97.665,330.256z M-86.227,306.755l-2.048,1.523
		l7.616,10.239l2.048-1.522L-86.227,306.755L-86.227,306.755z M-92.558,312.792l9.806,8.167l1.633-1.961l-9.806-8.167
		L-92.558,312.792L-92.558,312.792z M-95.759,318.468l11.568,5.388l1.078-2.314l-11.568-5.388L-95.759,318.468L-95.759,318.468z
		 M-97.411,324.447l12.489,2.624l0.525-2.497l-12.489-2.625L-97.411,324.447L-97.411,324.447z"/>
</g>
</svg>
